<svg xmlns="http://www.w3.org/2000/svg" width="2em" height="2em" viewBox="0 0 16 16">
	<path d="M0 0h16v16H0z" fill="none" />
	<path fill="currentColor" d="M2.5 5a.5.5 0 0 0-.5.5v4c-.01.676 1.01.676 1 0V8h.5c.676.01.676-1.01 0-1H3V6h.5c.676.01.676-1.01 0-1zm3 0a.5.5 0 0 0-.5.5v4c-.01.676 1.01.676 1 0V8h.07l.996 1.748c.319.62 1.241.093.868-.496L7.13 7.84c.152-.08.292-.18.41-.299c.267-.266.46-.624.46-1.041s-.193-.775-.459-1.041S6.917 5 6.5 5zm4 0a.5.5 0 0 0-.5.5v4a.5.5 0 0 0 .5.5h1c.676.01.676-1.01 0-1H10V8h.5c.676.01.676-1.01 0-1H10V6h.5c.676.01.676-1.01 0-1zm3 0a.5.5 0 0 0-.5.5v4a.5.5 0 0 0 .5.5h1c.676.01.676-1.01 0-1H13V8h.5c.676.01.676-1.01 0-1H13V6h.5c.676.01.676-1.01 0-1zM6 6h.5c.293 0 .5.215.5.5s-.2.5-.5.5H6z" />
</svg>
