<svg xmlns="http://www.w3.org/2000/svg" viewBox="0 0 24 24" width="24" height="24" color="currentColor" fill="none" stroke="currentColor" stroke-width="2" stroke-linecap="round" stroke-linejoin="round">
    <path d="M4.69141 20.7066C5.51196 18.1017 8.10493 16.18 11.0037 16.0379C11.3163 16.0226 11.6475 16.0097 12.0029 16L12.998 16.0663C15.924 16.2614 18.494 18.1152 19.3109 20.7066"></path>
    <path d="M2.5 12C2.5 7.52166 2.5 5.28249 3.89124 3.89124C5.28249 2.5 7.52166 2.5 12 2.5C16.4783 2.5 18.7175 2.5 20.1088 3.89124C21.5 5.28249 21.5 7.52166 21.5 12C21.5 16.4783 21.5 18.7175 20.1088 20.1088C18.7175 21.5 16.4783 21.5 12 21.5C7.52166 21.5 5.28249 21.5 3.89124 20.1088C2.5 18.7175 2.5 16.4783 2.5 12Z"></path>
    <path d="M14.9961 10C14.9961 11.6569 13.6529 13 11.9961 13C10.3392 13 8.99609 11.6569 8.99609 10C8.99609 8.34315 10.3392 7 11.9961 7C13.6529 7 14.9961 8.34315 14.9961 10Z"></path>
</svg>